<svg width="197" height="304" viewBox="0 0 197 304" fill="none" xmlns="http://www.w3.org/2000/svg">
<path d="M196 7.30187L188 10.3986L176.5 14.5L163 20C146.5 24.5 132.618 0.126459 123 7.30187C110 17 104.667 23.3019 100 25.3019" stroke="#582525"/>
<path d="M188 9.97233C186.667 7.30566 181.8 2.47233 173 4.47233C175.333 8.139 181.6 14.3723 188 9.97233Z" fill="#5FB05D" stroke="#1E5621"/>
<path d="M128.982 7.17833C125.872 8.21477 119.7 12.9646 119.888 23.6721C124.273 21.6611 132.231 15.5468 128.982 7.17833Z" fill="#5FB05D" stroke="#1E5621"/>
<path d="M154.94 20.6763C152.018 20.0856 145.213 20.9458 141.372 29.1121C145.698 29.5303 154.468 28.4286 154.94 20.6763Z" fill="#5FB05D" stroke="#1E5621"/>
<path d="M146.073 15.5435C146.894 12.6774 146.578 5.82576 138.743 1.34795C137.982 5.62698 138.383 14.4567 146.073 15.5435Z" fill="#5FB05D" stroke="#1E5621"/>
<path d="M180.591 11.901C179.262 10.3637 175.097 7.95302 169.066 10.609C171.251 12.6461 176.616 15.7564 180.591 11.901Z" fill="#5FB05D" stroke="#1E5621"/>
<path d="M145.687 16.678C144.095 15.4144 139.555 13.8198 134.122 17.5504C136.648 19.1459 142.497 21.205 145.687 16.678Z" fill="#5FB05D" stroke="#1E5621"/>
<path d="M172.06 16.9099C170.698 17.1288 167.819 18.6745 167.202 23.1055C169.158 22.57 172.868 20.5812 172.06 16.9099Z" fill="#5FB05D" stroke="#1E5621"/>
<path d="M182.828 7.42678C182.518 6.5932 181.178 4.96816 178.298 5.13664C178.883 6.30611 180.609 8.4014 182.828 7.42678Z" fill="#A1E8A8"/>
<path d="M125.365 16.6295C124.483 16.7477 122.602 17.6954 122.129 20.5412C123.399 20.229 125.824 19.0097 125.365 16.6295Z" fill="#A1E8A8"/>
<path d="M143.353 7.97985C143.389 7.0911 142.78 5.07455 140.058 4.11831C140.146 5.42314 140.93 8.0222 143.353 7.97985Z" fill="#A1E8A8"/>
<path d="M140.097 16.8981C139.6 16.6491 138.294 16.477 137.049 17.781C137.815 18.0664 139.497 18.2894 140.097 16.8981Z" fill="#A1E8A8"/>
<path d="M147.693 23.7712C146.805 23.8109 144.847 24.5884 144.124 27.3812C145.417 27.1826 147.94 26.1826 147.693 23.7712Z" fill="#A1E8A8"/>
<path d="M169.343 20.1586C169.018 20.2387 168.354 20.6694 168.293 21.7519C168.755 21.5835 169.611 21.029 169.343 20.1586Z" fill="#A1E8A8"/>
<path d="M175.59 11.2215C175.192 10.7305 173.919 9.94069 172.018 10.709C172.678 11.3637 174.317 12.3827 175.59 11.2215Z" fill="#A1E8A8"/>
<path d="M149.178 18.9049C147.851 18.5262 144.589 18.7067 142.152 22.4586C144.151 22.8025 148.355 22.5731 149.178 18.9049Z" fill="#5FB05D" stroke="#1E5621"/>
<path d="M128.492 5.68189C127.996 4.39482 125.888 1.899 121.425 2.21226C122.354 4.01525 125.068 7.23336 128.492 5.68189Z" fill="#5FB05D" stroke="#1E5621"/>
<path d="M151.003 18.6102C151.578 17.3564 151.893 14.1046 148.553 11.1277C147.911 13.0515 147.501 17.2413 151.003 18.6102Z" fill="#5FB05D" stroke="#1E5621"/>
<path d="M109.868 17.649C108.967 16.6042 106.141 14.9643 102.045 16.7624C103.527 18.1471 107.166 20.2631 109.868 17.649Z" fill="#5FB05D" stroke="#1E5621"/>
<path d="M109.517 19.2534C108.638 20.3168 107.496 23.3776 109.956 27.1142C111.073 25.4207 112.547 21.4777 109.517 19.2534Z" fill="#5FB05D" stroke="#1E5621"/>
<path d="M173.592 14.9005C172.262 13.3639 168.096 10.9557 162.066 13.6151C164.253 15.6509 169.619 18.7582 173.592 14.9005Z" fill="#5FB05D" stroke="#1E5621"/>
<path d="M167.975 13.9391C167.573 13.6142 166.421 13.1991 165.03 14.137C165.67 14.5482 167.154 15.0843 167.975 13.9391Z" fill="#A1E8A8"/>
<path d="M114.976 14.0806C113.279 15.1972 110.345 19.0121 112.191 25.3384C114.496 23.4375 118.28 18.5247 114.976 14.0806Z" fill="#5FB05D" stroke="#1E5621"/>
<path d="M114.592 13.9005C113.262 12.3639 109.096 9.9557 103.066 12.6151C105.253 14.6509 110.619 17.7582 114.592 13.9005Z" fill="#5FB05D" stroke="#1E5621"/>
<path d="M107.7 19.7344C106.159 18.4108 101.682 16.6436 96.1109 20.1635C98.574 21.8545 104.34 24.136 107.7 19.7344Z" fill="#5FB05D" stroke="#1E5621"/>
<path d="M107.709 20.597C105.841 21.397 102.281 24.6353 102.984 31.1879C105.588 29.7229 110.178 25.5537 107.709 20.597Z" fill="#5FB05D" stroke="#1E5621"/>
<path d="M179.12 14.6232C177.095 14.7916 172.694 16.7381 171.288 23.1766C174.222 22.6101 179.895 20.1063 179.12 14.6232Z" fill="#5FB05D" stroke="#1E5621"/>
<path d="M188.571 11.2155C185.835 11.7438 180.26 14.9037 179.854 23.3175C183.742 22.1416 190.928 18.075 188.571 11.2155Z" fill="#5FB05D" stroke="#1E5621"/>
<path d="M186.078 17.4684C185.188 17.4552 183.188 18.1152 182.3 20.8601C183.602 20.7386 186.181 19.8902 186.078 17.4684Z" fill="#A1E8A8"/>
<path d="M175.862 18.5619C175.138 18.6328 173.573 19.3524 173.104 21.664C174.151 21.4459 176.168 20.5202 175.862 18.5619Z" fill="#A1E8A8"/>
<path d="M149.278 15.2454C149.532 14.9301 149.857 14.0276 149.121 12.9394C148.8 13.4405 148.381 14.6031 149.278 15.2454Z" fill="#A1E8A8"/>
<path d="M146.121 20.567C145.733 20.4504 144.775 20.4901 144.044 21.5814C144.629 21.6905 145.864 21.6404 146.121 20.567Z" fill="#A1E8A8"/>
<path d="M125.815 3.91201C125.698 3.59874 125.194 2.98804 124.112 3.05135C124.332 3.49085 124.98 4.27828 125.815 3.91201Z" fill="#A1E8A8"/>
<path d="M114.556 19.0436C113.904 19.376 112.703 20.6252 113.114 22.9623C114.014 22.3732 115.562 20.7648 114.556 19.0436Z" fill="#A1E8A8"/>
<path d="M108.896 14.0369C108.625 13.5829 107.668 12.7762 106.003 13.1823C106.47 13.8033 107.702 14.8437 108.896 14.0369Z" fill="#A1E8A8"/>
<path d="M102.896 21.0369C102.625 20.5829 101.668 19.7762 100.003 20.1823C100.47 20.8033 101.702 21.8437 102.896 21.0369Z" fill="#A1E8A8"/>
<path d="M109.965 22.1122C109.608 22.4717 109.098 23.4205 109.912 24.3398C110.374 23.7848 111.032 22.5624 109.965 22.1122Z" fill="#A1E8A8"/>
<path d="M107.038 17.3814C106.73 16.9524 105.706 16.2316 104.082 16.7802C104.601 17.3585 105.919 18.2883 107.038 17.3814Z" fill="#A1E8A8"/>
<path d="M106.092 25.2839C105.438 25.4779 104.125 26.419 104.104 28.6312C105.029 28.2441 106.722 27.0328 106.092 25.2839Z" fill="#A1E8A8"/>
<rect x="10.5" y="13.5" width="181" height="277" rx="3.5" stroke="#757575"/>
<path d="M1 297.127L9 294.031L20.5 289.929L34 284.429C50.5 279.929 64.3816 304.303 74 297.127C87 287.429 92.3333 281.127 97 279.127" stroke="#582525"/>
<path d="M9 294.457C10.3333 297.124 15.2 301.957 24 299.957C21.6667 296.29 15.4 290.057 9 294.457Z" fill="#5FB05D" stroke="#1E5621"/>
<path d="M68.0181 297.251C71.1279 296.214 77.3003 291.465 77.1123 280.757C72.727 282.768 64.7687 288.882 68.0181 297.251Z" fill="#5FB05D" stroke="#1E5621"/>
<path d="M42.0598 283.753C44.9822 284.344 51.787 283.483 55.6278 275.317C51.3018 274.899 42.5319 276.001 42.0598 283.753Z" fill="#5FB05D" stroke="#1E5621"/>
<path d="M50.9267 288.886C50.1055 291.752 50.422 298.603 58.2571 303.081C59.0179 298.802 58.6169 289.972 50.9267 288.886Z" fill="#5FB05D" stroke="#1E5621"/>
<path d="M16.409 292.528C17.7376 294.066 21.9028 296.476 27.934 293.82C25.7486 291.783 20.3839 288.673 16.409 292.528Z" fill="#5FB05D" stroke="#1E5621"/>
<path d="M51.3135 287.751C52.9047 289.015 57.4453 290.609 62.8778 286.879C60.3518 285.283 54.5026 283.224 51.3135 287.751Z" fill="#5FB05D" stroke="#1E5621"/>
<path d="M24.9403 287.519C26.3022 287.3 29.1805 285.755 29.7983 281.324C27.842 281.859 24.1316 283.848 24.9403 287.519Z" fill="#5FB05D" stroke="#1E5621"/>
<path d="M14.1716 297.002C14.4819 297.836 15.8224 299.461 18.7023 299.293C18.1168 298.123 16.3911 296.028 14.1716 297.002Z" fill="#A1E8A8"/>
<path d="M71.6352 287.8C72.5168 287.682 74.3982 286.734 74.8712 283.888C73.6012 284.2 71.1759 285.42 71.6352 287.8Z" fill="#A1E8A8"/>
<path d="M53.6466 296.449C53.6111 297.338 54.2205 299.355 56.9422 300.311C56.8536 299.006 56.0703 296.407 53.6466 296.449Z" fill="#A1E8A8"/>
<path d="M56.9033 287.531C57.4003 287.78 58.7057 287.952 59.951 286.648C59.185 286.363 57.5031 286.14 56.9033 287.531Z" fill="#A1E8A8"/>
<path d="M49.3068 280.658C50.1953 280.618 52.1532 279.841 52.8761 277.048C51.5834 277.247 49.0598 278.247 49.3068 280.658Z" fill="#A1E8A8"/>
<path d="M27.6572 284.271C27.9817 284.191 28.6459 283.76 28.7066 282.677C28.2448 282.846 27.3885 283.4 27.6572 284.271Z" fill="#A1E8A8"/>
<path d="M21.4096 293.208C21.8082 293.699 23.0808 294.489 24.9824 293.72C24.3221 293.066 22.6831 292.047 21.4096 293.208Z" fill="#A1E8A8"/>
<path d="M47.8223 285.524C49.1487 285.903 52.4108 285.723 54.8478 281.971C52.8489 281.627 48.6453 281.856 47.8223 285.524Z" fill="#5FB05D" stroke="#1E5621"/>
<path d="M68.5076 298.747C69.0038 300.034 71.1121 302.53 75.575 302.217C74.646 300.414 71.9319 297.196 68.5076 298.747Z" fill="#5FB05D" stroke="#1E5621"/>
<path d="M45.9975 285.819C45.4223 287.073 45.1069 290.325 48.4466 293.302C49.0891 291.378 49.4987 287.188 45.9975 285.819Z" fill="#5FB05D" stroke="#1E5621"/>
<path d="M87.1324 286.78C88.0332 287.825 90.8588 289.465 94.9555 287.667C93.4735 286.282 89.8341 284.166 87.1324 286.78Z" fill="#5FB05D" stroke="#1E5621"/>
<path d="M87.4832 285.176C88.3619 284.112 89.504 281.052 87.0436 277.315C85.9273 279.008 84.4525 282.951 87.4832 285.176Z" fill="#5FB05D" stroke="#1E5621"/>
<path d="M23.4081 289.529C24.7376 291.065 28.9041 293.474 34.9338 290.814C32.7472 288.778 27.3808 285.671 23.4081 289.529Z" fill="#5FB05D" stroke="#1E5621"/>
<path d="M29.0252 290.49C29.4274 290.815 30.5795 291.23 31.9695 290.292C31.3301 289.881 29.8461 289.345 29.0252 290.49Z" fill="#A1E8A8"/>
<path d="M82.0235 290.349C83.7211 289.232 86.6547 285.417 84.8087 279.091C82.5038 280.992 78.7198 285.905 82.0235 290.349Z" fill="#5FB05D" stroke="#1E5621"/>
<path d="M82.4081 290.529C83.7376 292.065 87.9041 294.474 93.9338 291.814C91.7472 289.778 86.3808 286.671 82.4081 290.529Z" fill="#5FB05D" stroke="#1E5621"/>
<path d="M89.2998 284.695C90.8414 286.018 95.3177 287.786 100.889 284.266C98.426 282.575 92.6599 280.293 89.2998 284.695Z" fill="#5FB05D" stroke="#1E5621"/>
<path d="M89.2909 283.832C91.1587 283.032 94.7186 279.794 94.0161 273.241C91.4123 274.706 86.8219 278.876 89.2909 283.832Z" fill="#5FB05D" stroke="#1E5621"/>
<path d="M17.8801 289.806C19.905 289.638 24.3063 287.691 25.7118 281.253C22.7784 281.819 17.1052 284.323 17.8801 289.806Z" fill="#5FB05D" stroke="#1E5621"/>
<path d="M8.42892 293.214C11.1653 292.685 16.7398 289.526 17.1464 281.112C13.2584 282.288 6.07169 286.354 8.42892 293.214Z" fill="#5FB05D" stroke="#1E5621"/>
<path d="M10.9224 286.961C11.8117 286.974 13.8123 286.314 14.6997 283.569C13.3975 283.691 10.819 284.539 10.9224 286.961Z" fill="#A1E8A8"/>
<path d="M21.1379 285.867C21.8618 285.796 23.4268 285.077 23.8962 282.765C22.8493 282.983 20.832 283.909 21.1379 285.867Z" fill="#A1E8A8"/>
<path d="M47.722 289.184C47.4678 289.499 47.1433 290.402 47.8788 291.49C48.2004 290.989 48.6194 289.826 47.722 289.184Z" fill="#A1E8A8"/>
<path d="M50.8792 283.862C51.267 283.979 52.2252 283.939 52.9559 282.848C52.3706 282.739 51.1358 282.789 50.8792 283.862Z" fill="#A1E8A8"/>
<path d="M71.1854 300.517C71.302 300.83 71.8058 301.441 72.8881 301.378C72.6681 300.938 72.0195 300.151 71.1854 300.517Z" fill="#A1E8A8"/>
<path d="M82.4442 285.386C83.0959 285.053 84.2968 283.804 83.8865 281.467C82.9863 282.056 81.4378 283.664 82.4442 285.386Z" fill="#A1E8A8"/>
<path d="M88.1044 290.392C88.3748 290.846 89.3319 291.653 90.9971 291.247C90.53 290.626 89.2975 289.586 88.1044 290.392Z" fill="#A1E8A8"/>
<path d="M94.1044 283.392C94.3748 283.846 95.3319 284.653 96.9971 284.247C96.53 283.626 95.2975 282.586 94.1044 283.392Z" fill="#A1E8A8"/>
<path d="M87.0352 282.317C87.3917 281.958 87.9015 281.009 87.0884 280.089C86.626 280.644 85.968 281.867 87.0352 282.317Z" fill="#A1E8A8"/>
<path d="M89.9618 287.048C90.2705 287.477 91.2938 288.198 92.9177 287.649C92.3986 287.071 91.0807 286.141 89.9618 287.048Z" fill="#A1E8A8"/>
<path d="M90.9084 279.145C91.5624 278.951 92.8755 278.01 92.8965 275.798C91.9713 276.185 90.2783 277.396 90.9084 279.145Z" fill="#A1E8A8"/>
</svg>
