<svg width="31" height="31" viewBox="0 0 31 31" fill="none" xmlns="http://www.w3.org/2000/svg">
<path d="M0 4.39166V5.57535V25.4246V26.6083H31V25.4246V5.57535V4.39166H0ZM18.9229 15.7914L16.1091 18.6186C15.7671 18.9363 15.2318 18.9358 14.9043 18.632L12.0766 15.7914L12.1014 15.7671L1.88428 5.425H29.1224L18.8981 15.7676L18.9229 15.7914ZM10.6041 15.7754L1.03333 24.9834V6.16021L10.6041 15.7754ZM11.3326 16.5075L14.1861 19.3745C14.5524 19.716 15.0226 19.8875 15.4948 19.8875C15.9717 19.8875 16.4507 19.7124 16.8283 19.3605L19.668 16.5075L29.0904 25.575H1.90443L11.3326 16.5075ZM20.3964 15.7759L29.9667 6.1597V24.9834L20.3964 15.7759Z" fill="#72DAE0"/>
</svg>
