<svg width="22" height="22" viewBox="0 0 22 22" fill="none" xmlns="http://www.w3.org/2000/svg">
<g clip-path="url(#clip0_2_186)">
<path d="M21.9528 17.046C21.8906 16.8585 21.4947 16.5823 20.7654 16.218C20.5678 16.1032 20.2863 15.9472 19.9221 15.7492C19.5575 15.5513 19.2265 15.3689 18.9299 15.2022C18.6326 15.0355 18.3541 14.8741 18.0939 14.7181C18.0523 14.6868 17.9221 14.5958 17.7033 14.4444C17.4844 14.2935 17.2997 14.1815 17.1484 14.1084C16.9974 14.0358 16.8489 13.9992 16.703 13.9992C16.4947 13.9992 16.2346 14.1478 15.9222 14.4444C15.6098 14.7415 15.3233 15.0642 15.063 15.4134C14.8026 15.7625 14.5266 16.0852 14.2352 16.3821C13.9434 16.6791 13.7036 16.8275 13.5164 16.8275C13.4223 16.8275 13.3051 16.8012 13.1646 16.7495C13.0242 16.6975 12.9174 16.6529 12.844 16.6169C12.7714 16.5802 12.6466 16.5075 12.4694 16.3978C12.2919 16.2884 12.1932 16.2285 12.1724 16.218C10.7454 15.4262 9.52153 14.5199 8.5006 13.4994C7.48 12.4783 6.57362 11.2546 5.782 9.82743C5.7716 9.80658 5.71157 9.70758 5.60228 9.53059C5.49282 9.35344 5.41987 9.22861 5.38343 9.15549C5.34698 9.08265 5.3027 8.97583 5.25071 8.83523C5.19872 8.69464 5.17262 8.57753 5.17262 8.48367C5.17262 8.29629 5.32109 8.05658 5.61798 7.76489C5.91482 7.47336 6.23782 7.19721 6.58665 6.93699C6.93575 6.67676 7.25842 6.39021 7.55536 6.07783C7.8522 5.76529 8.00062 5.50501 8.00062 5.29672C8.00062 5.15098 7.96417 5.0024 7.89133 4.85141C7.81843 4.70009 7.70646 4.51544 7.55536 4.29659C7.40421 4.07785 7.31309 3.94776 7.28178 3.9059C7.1257 3.64567 6.96442 3.36706 6.79756 3.07016C6.6307 2.77333 6.44857 2.44245 6.25057 2.07792C6.05273 1.71355 5.8966 1.4322 5.78189 1.2343C5.41752 0.505291 5.14153 0.109289 4.95399 0.0470102C4.88103 0.0157613 4.77158 0 4.6259 0C4.34449 0 3.97739 0.0519903 3.52431 0.156299C3.07106 0.260444 2.71441 0.369678 2.45396 0.48444C1.93313 0.703073 1.3811 1.33845 0.797715 2.39035C0.266484 3.3693 0.0008955 4.33824 0.0008955 5.29644C0.0008955 5.57747 0.0191195 5.85088 0.0555674 6.11674C0.0920154 6.38233 0.15714 6.68185 0.250996 7.01524C0.344688 7.34853 0.420266 7.59611 0.4774 7.75734C0.53459 7.91867 0.641361 8.20768 0.797661 8.62448C0.953741 9.04117 1.0476 9.29625 1.07885 9.39C1.44338 10.4109 1.87567 11.3222 2.37559 12.1244C3.19814 13.4576 4.32063 14.8355 5.74243 16.2574C7.16428 17.6792 8.54186 18.8016 9.87522 19.6245C10.6772 20.1244 11.5889 20.5566 12.6096 20.9214C12.7034 20.9525 12.9585 21.0461 13.375 21.2027C13.7917 21.3589 14.0809 21.4657 14.2422 21.523C14.4036 21.5804 14.6512 21.656 14.9842 21.7498C15.318 21.8437 15.6172 21.9088 15.8828 21.9455C16.1485 21.9815 16.422 22.0001 16.7031 22.0001C17.6612 22.0001 18.6302 21.7343 19.6093 21.2031C20.6611 20.62 21.2963 20.0678 21.5151 19.5466C21.6301 19.2864 21.7391 18.9297 21.8432 18.4764C21.9477 18.0234 21.9996 17.6563 21.9996 17.375C21.9999 17.2287 21.9842 17.1195 21.9528 17.046Z" fill="#72DAE0"/>
</g>
<defs>
<clipPath id="clip0_2_186">
<rect width="22" height="22" fill="white"/>
</clipPath>
</defs>
</svg>
