<svg width="30" height="30" viewBox="0 0 30 30" fill="none" xmlns="http://www.w3.org/2000/svg">
<g clip-path="url(#clip0_2_204)">
<path d="M29.6484 14.8066C29.6426 17.3438 29.0918 19.582 27.9785 21.6621C26.9297 23.625 25.4824 25.2598 23.6602 26.5488C22.0605 27.6797 20.3086 28.4531 18.3926 28.8516C16.2715 29.291 14.1504 29.2441 12.0469 28.7402C10.9336 28.4707 9.86719 28.0605 8.86523 27.5156C8.69531 27.4219 8.54883 27.416 8.36719 27.4746C6.1582 28.1836 3.94922 28.8867 1.74023 29.5898C1.48828 29.6719 1.24219 29.748 0.990234 29.8418C0.814453 29.9062 0.802734 29.8418 0.849609 29.6953C1.10742 28.9395 1.35937 28.1836 1.61719 27.4219C2.16797 25.7754 2.71875 24.1289 3.28125 22.4883C3.35742 22.2715 3.24609 22.1309 3.1582 21.9785C2.4668 20.7773 1.97461 19.5 1.66992 18.1523C1.00781 15.2461 1.24219 12.3984 2.35547 9.63867C3 8.04492 3.91992 6.61524 5.09766 5.34961C6.59766 3.73242 8.37305 2.54297 10.4238 1.7461C12.3398 1.00196 14.3203 0.714846 16.3594 0.837893C19.1543 1.00781 21.6973 1.9336 23.9297 3.6211C26.8184 5.80078 28.6348 8.66602 29.3613 12.2227C29.5547 13.1309 29.625 14.0508 29.6484 14.8066ZM15.3809 3.21094C14.8359 3.1875 14.1973 3.25196 13.5586 3.34571C13.3066 3.38086 13.0605 3.4336 12.8145 3.49805C9.00586 4.46485 6.26953 6.73828 4.6582 10.3184C3.72656 12.3867 3.47461 14.5723 3.82617 16.8105C4.10156 18.5801 4.75781 20.209 5.7832 21.6797C5.89453 21.8438 5.91211 21.9844 5.84766 22.166C5.41406 23.4375 4.99219 24.7148 4.56445 25.9922C4.54102 26.0625 4.4707 26.1445 4.53516 26.209C4.59961 26.2793 4.68164 26.2031 4.75195 26.1797C6.03516 25.7695 7.31836 25.3652 8.58984 24.9375C8.88281 24.8379 9.09375 24.8848 9.3457 25.0371C12.2227 26.7656 15.2988 27.2227 18.5391 26.3613C21 25.7109 23.0273 24.3691 24.6328 22.3887C26.1855 20.4727 27.0527 18.2813 27.2285 15.832C27.3633 13.9512 27.0703 12.123 26.3203 10.377C25.377 8.17969 23.9062 6.42188 21.9199 5.11524C19.9746 3.83789 17.8242 3.18164 15.3809 3.21094Z" fill="#72DAE0"/>
<path d="M8.38477 11.5781C8.4082 10.2598 8.92383 9.17579 9.93164 8.33204C10.2188 8.0918 10.5645 7.99219 10.9453 8.05665C11.1094 8.08009 11.2793 8.10352 11.4375 8.08594C11.8359 8.05665 12.0645 8.2793 12.1875 8.60743C12.5625 9.5918 12.9258 10.582 13.2949 11.5664C13.3652 11.7539 13.3477 11.9238 13.2598 12.0996C13.0312 12.5742 12.668 12.9434 12.3047 13.3125C11.9883 13.6348 11.9707 13.7402 12.1875 14.1328C13.2363 16.0313 14.6836 17.5078 16.6875 18.4043C16.7871 18.4453 16.875 18.5156 16.9687 18.5566C17.2207 18.6797 17.4492 18.668 17.6602 18.4512C18.0703 18.0352 18.4512 17.5899 18.8203 17.1328C19.1074 16.7754 19.2422 16.7227 19.6465 16.9043C20.6309 17.3613 21.5684 17.8945 22.5234 18.4102C22.8398 18.5801 22.875 18.8145 22.8281 19.2422C22.6348 20.9824 21.3047 21.7734 19.7871 22.0254C19.2773 22.1074 18.7969 22.0606 18.3164 21.9082C16.9102 21.4629 15.5273 20.9473 14.2852 20.1387C13.125 19.3828 12.1289 18.4395 11.2559 17.3672C10.4063 16.3184 9.65039 15.2109 9.02344 14.0098C8.67188 13.3242 8.38477 12.2578 8.38477 11.5781Z" fill="#72DAE0"/>
</g>
<defs>
<clipPath id="clip0_2_204">
<rect width="30" height="30" fill="white"/>
</clipPath>
</defs>
</svg>
